# This file uses centimeters as units for non-parametric coordinates.

mtllib plane.mtl
g default
v -1.600000 -0.000000 2.400000
v 0.000000 -0.000000 2.400000
v 1.600000 -0.000000 2.400000
v -1.600000 0.000000 0.000000
v 0.000000 0.000000 0.000000
v 1.600000 0.000000 0.000000
v -1.600000 0.000000 -2.400000
v 0.000000 0.000000 -2.400000
v 1.600000 0.000000 -2.400000
vt 0.000000 0.000000
vt 0.333333 0.000000
vt 0.666667 0.000000
vt 0.000000 0.500000
vt 0.333333 0.500000
vt 0.666667 0.500000
vt 0.000000 1.000000
vt 0.333333 1.000000
vt 0.666667 1.000000
vn 0.000000 1.000000 0.000000
vn 0.000000 1.000000 0.000000
vn 0.000000 1.000000 0.000000
vn 0.000000 1.000000 0.000000
vn 0.000000 1.000000 0.000000
vn 0.000000 1.000000 0.000000
vn 0.000000 1.000000 0.000000
vn 0.000000 1.000000 0.000000
vn 0.000000 1.000000 0.000000
s 1
g bgPlane
usemtl initialShadingGroup
f 1/1/1 2/2/2 4/4/3
f 4/4/3 2/2/2 5/5/4
f 2/2/2 3/3/5 5/5/4
f 5/5/4 3/3/5 6/6/6
f 4/4/3 5/5/4 7/7/7
f 7/7/7 5/5/4 8/8/8
f 5/5/4 6/6/6 8/8/8
f 8/8/8 6/6/6 9/9/9
